# xmcd
#
# Track frame offsets:
# 150
# 15883
# 31394
# 46964
# 64058
# 78540
# 93413
# 112623
# 126917
# 140807
# 156349
#
# Disc length: 2258 seconds
#
#
# Revision: 0
# Processed by: cddbd v1.5.2PL0 Copyright (c) Steve Scherf et al.
# Submitted via: FreeRIP 2.945 
#
DISCID=8808d00b
DTITLE=Carlinhos Palhano $ Samba de Mesa - Samba Ser Brasileiro
DYEAR=1900
DGENRE=Samba
TTITLE0=Samba ser brasileiro
TTITLE1=Tô de butuca
TTITLE2=Pagode do agiota
TTITLE3=Nêa bandida
TTITLE4=Mania do coração
TTITLE5=Cunhado, vizinha e sogra
TTITLE6=Inspiração
TTITLE7=Um sete um
TTITLE8=Passado na praça
TTITLE9=Craques do passado
TTITLE10=Pagode do coxinha
EXTD=
EXTT0=
EXTT1=
EXTT2=
EXTT3=
EXTT4=
EXTT5=
EXTT6=
EXTT7=
EXTT8=
EXTT9=
EXTT10=
PLAYORDER=
